<svg xmlns="http://www.w3.org/2000/svg" viewBox="0 0 64 64" width="64" height="64" role="img" aria-label="Fig">
  <rect width="64" height="64" rx="15" fill="#2a2140"/>
  <path d="M32 16 C24 24 17 31 17 39 a15 15 0 0 0 30 0 C47 31 40 24 32 16 Z" fill="#8a5fbf"/>
  <path d="M32 16 C27 25 25 32 26 41" fill="none" stroke="#c9a7ef" stroke-width="2.5" stroke-linecap="round" opacity=".7"/>
  <path d="M32 16 V10" stroke="#7bc47f" stroke-width="3.5" stroke-linecap="round"/>
  <path d="M32 12 C36 7 42 7 46 9 C43 13 37 14 32 12 Z" fill="#7bc47f"/>
  <circle cx="38" cy="44" r="1.6" fill="#f2d6ff" opacity=".8"/>
  <circle cx="33" cy="49" r="1.3" fill="#f2d6ff" opacity=".6"/>
  <circle cx="40" cy="37" r="1.1" fill="#f2d6ff" opacity=".5"/>
</svg>
